<svg width="17" height="24" viewBox="0 0 17 24" fill="none" xmlns="http://www.w3.org/2000/svg">
<path d="M13.2112 1L13.468 1.0127C14.0631 1.07239 14.6224 1.3361 15.0491 1.7627C15.4757 2.1893 15.7393 2.74867 15.7991 3.34375L15.8118 3.60156V22.7998C15.8116 22.8528 15.7907 22.9039 15.7532 22.9414C15.7156 22.9789 15.6646 22.9999 15.6116 23C15.5766 23 15.5422 22.991 15.512 22.9736L8.91138 19.167L8.41235 18.8789L7.91235 19.167L1.31274 22.9727C1.28227 22.9902 1.24734 23 1.21216 23C1.1771 22.9999 1.14291 22.9902 1.11255 22.9727C1.08209 22.9551 1.0569 22.9299 1.03931 22.8994C1.02177 22.8691 1.01204 22.8349 1.01196 22.7998V3.60156C1.01272 2.91194 1.28702 2.25033 1.77466 1.7627C2.20126 1.33609 2.76062 1.07243 3.35571 1.0127L3.61353 1H13.2112Z" stroke="white" stroke-width="2"/>
</svg>
