<svg width="10" height="20" viewBox="0 0 10 20" fill="none" xmlns="http://www.w3.org/2000/svg">
<path d="M9.95129 7.18505C9.8936 7.00762 9.78745 6.84986 9.64482 6.72958C9.5022 6.6093 9.32878 6.5313 9.14416 6.50439L3.44543 5.67626L0.897122 0.512689C0.810267 0.352155 0.680227 0.219126 0.521708 0.128645C0.36319 0.0381642 0.182517 -0.00615875 0.00012207 0.000688744V16.2798L5.09729 18.9595C5.26247 19.0463 5.44864 19.0852 5.63475 19.0717C5.82087 19.0582 5.9995 18.993 6.15047 18.8833C6.30144 18.7736 6.41872 18.6239 6.48906 18.4511C6.55939 18.2782 6.57996 18.0892 6.54846 17.9053L5.57483 12.2295L9.69836 8.21048C9.83196 8.08015 9.92644 7.91506 9.97114 7.73385C10.0158 7.55265 10.009 7.36255 9.95129 7.18505Z" fill="#888888"/>
</svg>
